<?xml version="1.0" encoding="UTF-8"?>
<svg width="756px" height="756px" viewBox="0 0 756 756" version="1.1" xmlns="http://www.w3.org/2000/svg" xmlns:xlink="http://www.w3.org/1999/xlink" style="background: #FFFFFF;">
    <!-- Generator: Sketch 49.3 (51167) - http://www.bohemiancoding.com/sketch -->
    <title>with-shape-and-color/logo</title>
    <desc>Created with Sketch.</desc>
    <defs></defs>
    <g id="with-shape-and-color/logo" stroke="none" stroke-width="1" fill="none" fill-rule="evenodd">
        <g id="Group-Copy-19" transform="translate(87.000000, 70.000000)">
            <polygon id="Path-3" fill="#50E1E3" points="632.093317 69.2616752 576.786754 249.979588 360.765909 518.850393 277.445576 573.535559 88.1332974 573.535559 0.0933170591 494.650035 45.3067397 233.19819 171.78534 90.0115354 458.681453 0.464440971"></polygon>
            <g id="54" transform="translate(41.000000, 5.000000)" stroke="#222222" stroke-linejoin="round">
                <path d="M181.769822,471.129763 C181.769822,471.129763 0.634737154,366.551383 0.634737154,366.551383 C0.634737154,366.551383 0.634737154,314.262174 0.634737154,314.262174 L45.9185079,288.117589 L136.486047,340.406779 L136.486047,288.117589 L45.9185079,235.828379 L45.9185079,26.6716047 L91.2022806,0.527007905 L362.904901,157.394585 L362.904901,261.972984 L408.188676,235.828379 L408.188676,78.9608004 L453.47247,52.8162036 L498.756206,78.9608004 L498.756206,444.985178 L453.47247,471.129763 L408.188676,444.985178 L408.188676,340.406779 L317.621146,392.695968 L272.337372,366.551383 L272.337372,209.683794 L136.486047,131.25 L136.486047,183.53919 L227.053597,235.828379 L227.053597,444.985178 L181.769822,471.129763 Z" stroke-width="6" stroke-linecap="round"></path>
                <polygon id="5-top-top" stroke-width="3" points="317.617533 183.677316 362.767182 157.315277 91.1998377 0.483967291 45.9424441 26.6779103"></polygon>
                <polygon id="5-top-right" stroke-width="3" points="91.1897477 105.082701 136.491651 131.253289 136.491651 183.531143 91.1897477 209.721554"></polygon>
                <polygon id="5-middle-top" stroke-width="3" points="91.2263076 209.719475 136.493807 183.535454 227.029922 235.828888 181.771729 261.982132"></polygon>
                <polygon id="5-middle-right" stroke-width="3" stroke-linecap="round" points="181.771691 261.971036 181.771691 471.101645 227.058329 444.98335 227.058329 235.820997"></polygon>
                <polygon id="5-bottom-top" stroke-width="3" points="136.477264 392.684372 0.652359009 314.277725 45.9164124 288.128418 136.477264 340.406395"></polygon>
                <polygon id="4-middle-top" stroke-width="3" points="362.909092 261.947518 362.909092 314.249768 453.448593 261.973572 408.196673 235.836636"></polygon>
                <polygon id="4-bottom-left" stroke-width="3" points="408.188124 340.411067 408.188124 444.978802 453.465118 471.110107 453.465118 314.279175"></polygon>
                <polygon id="4-top-left" stroke-width="3" points="453.449544 261.969837 453.449544 105.110641 408.197205 78.9593506 408.197205 235.829147"></polygon>
                <polygon id="4-top-top" stroke-width="3" points="453.474304 105.101547 498.743973 78.9667969 453.474304 52.8204651 408.192566 78.9667969"></polygon>
                <polygon id="5-face" stroke-width="3" fill="#FFFFFF" points="317.669155 183.568579 317.669155 392.657817 272.329593 366.522195 272.329593 209.655461 91.2189904 105.09945 91.2189904 209.710873 181.765804 261.982758 181.765804 471.105147 0.648197306 366.560748 0.648197306 314.270085 136.476013 392.684189 136.476013 288.130692 45.9212952 235.82518 45.9212952 26.6683595"></polygon>
                <polygon id="4-face" stroke-width="3" fill="#FFFFFF" points="362.895645 157.400421 317.627441 183.540375 317.627441 392.659257 453.470505 314.272308 453.470505 471.120274 498.750885 444.988022 498.750885 78.9615021 453.470505 105.104706 453.470505 261.95655 362.895645 314.272308"></polygon>
            </g>
            <text id="Dérivation" font-family="Montserrat-Light, Montserrat" font-size="82" font-weight="300" fill="#040404">
                <tspan x="29" y="590">DÉRIVATION</tspan>
            </text>
        </g>
    </g>
</svg>