<?xml version="1.0" encoding="UTF-8"?>
<svg width="756px" height="756px" viewBox="0 0 756 756" version="1.1" xmlns="http://www.w3.org/2000/svg" xmlns:xlink="http://www.w3.org/1999/xlink" style="background: #FFFFFF;">
    <!-- Generator: Sketch 49.3 (51167) - http://www.bohemiancoding.com/sketch -->
    <title>logo/logo</title>
    <desc>Created with Sketch.</desc>
    <defs></defs>
    <g id="logo/logo" stroke="none" stroke-width="1" fill="none" fill-rule="evenodd">
        <g id="Group-Copy-19" transform="translate(125.000000, 72.000000)">
            <g id="54" fill="#222222" fill-rule="nonzero">
                <path d="M227.053597,446.253127 L227.053597,240.56043 L137.986048,189.137266 C137.057844,188.601368 136.486047,187.610987 136.486047,186.53919 L136.486047,134.25 C136.486047,131.940599 138.986047,130.497223 140.986047,131.651924 L276.837371,210.085718 C277.765575,210.621617 278.337372,211.611998 278.337372,212.683794 L278.337372,367.819332 L320.621146,393.231867 L409.688676,341.808702 C411.688676,340.654002 414.188676,342.097378 414.188676,344.406779 L414.188676,446.253126 L456.472469,470.665662 L498.756206,446.253127 L498.756206,83.6928505 L456.472469,59.2803053 L414.188676,83.6928517 L414.188676,238.828379 C414.188676,239.900176 413.616879,240.890557 412.688676,241.426456 L367.404901,267.57106 C365.404901,268.725761 362.904901,267.282385 362.904901,264.972984 L362.904901,162.126636 L94.2022806,6.99110948 L51.9185079,31.4036556 L51.9185079,237.096329 L140.986048,288.519513 C141.914251,289.055411 142.486047,290.045792 142.486047,291.117589 L142.486047,343.406779 C142.486047,345.71618 139.986048,347.159555 137.986048,346.004855 L48.9185076,294.58169 L6.63473715,318.994225 L6.63473715,367.819333 L184.769822,470.665662 L227.053597,446.253127 Z M142.486047,184.807139 L231.553597,236.230303 C232.4818,236.766201 233.053597,237.756583 233.053597,238.828379 L233.053597,447.985178 C233.053597,449.056975 232.4818,450.047356 231.553596,450.583254 L186.269822,476.727839 C185.341618,477.263737 184.198025,477.263737 183.269822,476.727839 L2.13473727,372.14946 C1.20653397,371.613561 0.634737154,370.62318 0.634737154,369.551383 L0.634737154,317.262174 C0.634737154,316.190377 1.20653415,315.199996 2.13473768,314.664097 L47.4185084,288.519512 C48.3467116,287.983614 49.4903048,287.983614 50.4185078,288.519513 L136.486047,338.210626 L136.486047,292.849639 L47.4185076,241.426455 C46.4903045,240.890557 45.9185079,239.900176 45.9185079,238.828379 L45.9185079,29.6716047 C45.9185079,28.5998079 46.4903047,27.6094269 47.418508,27.0735285 L92.7022807,0.928931656 C93.6304839,0.393033314 94.7740774,0.393033322 95.7022806,0.928931677 L367.404901,157.796509 C368.333104,158.332407 368.904901,159.322788 368.904901,160.394585 L368.904901,259.776831 L408.188676,237.096329 L408.188676,81.9608004 C408.188676,80.8890034 408.760473,79.8986221 409.688676,79.3627238 L454.972471,53.218127 C455.900674,52.6822288 457.044268,52.6822291 457.972471,53.2181278 L503.256206,79.3627247 C504.184409,79.8986232 504.756206,80.889004 504.756206,81.9608004 L504.756206,447.985178 C504.756206,449.056974 504.184409,450.047355 503.256206,450.583254 L457.972471,476.727839 C457.044268,477.263737 455.900675,477.263738 454.972471,476.72784 L409.688677,450.583255 C408.760473,450.047357 408.188676,449.056975 408.188676,447.985178 L408.188676,349.602931 L322.121146,399.294045 C321.192943,399.829943 320.04935,399.829943 319.121147,399.294045 L273.837372,372.14946 C272.909169,371.613562 272.337372,370.62318 272.337372,369.551383 L272.337372,214.415845 L142.486047,139.446152 L142.486047,184.807139 Z"></path>
                <path d="M321.373869,187.972675 C320.908632,188.244318 320.333452,188.245606 319.867003,187.976048 L48.1919145,30.9766425 C47.1930025,30.3993772 47.1925254,28.9576012 48.1910553,28.379675 L93.4484489,2.18573202 C93.9128133,1.91696852 94.4853672,1.91669543 94.9499878,2.18501583 L366.517332,159.016325 C367.514381,159.592125 367.51781,161.030088 366.523518,161.610636 L321.373869,187.972675 Z M362.780116,160.322399 L94.2006642,5.2166109 L51.9386119,29.6769189 L320.61365,184.942613 L362.780116,160.322399 Z" id="5-top-top"></path>
                <path d="M95.6897477,210.121722 L137.991651,185.665703 L137.991651,135.119058 L95.6897477,110.681548 L95.6897477,210.121722 Z M94.9400815,106.783856 L140.241985,132.954444 C140.705899,133.222443 140.991651,133.717528 140.991651,134.253289 L140.991651,186.531143 C140.991651,187.066728 140.706084,187.561679 140.242411,187.829742 L94.9405075,214.020154 C93.9405077,214.598284 92.6897477,213.876645 92.6897477,212.721554 L92.6897477,108.082701 C92.6897477,106.927829 93.9400815,106.206163 94.9400815,106.783856 Z" id="5-top-right"></path>
                <path d="M184.771294,263.249944 L227.031411,238.829192 L139.494346,188.268002 L97.2245044,212.718092 L184.771294,263.249944 Z M93.4752577,211.421044 L138.742757,185.237023 C139.207103,184.968432 139.779534,184.968254 140.244047,185.236555 L230.780163,237.529989 C231.779725,238.107333 231.779871,239.550088 230.780426,240.127635 L185.522232,266.280879 C185.058108,266.549082 184.486136,266.549225 184.021877,266.281256 L93.4764558,214.018599 C92.4767909,213.441594 92.4761255,211.998971 93.4752577,211.421044 Z" id="5-middle-top"></path>
                <path d="M183.271691,264.971036 C183.271691,264.435171 183.557554,263.940006 184.02161,263.672045 L229.308248,237.522006 C230.308248,236.944572 231.558329,237.666255 231.558329,238.820997 L231.558329,447.98335 C231.558329,448.519497 231.272168,449.014877 230.807727,449.282735 L185.521089,475.401031 C184.52109,475.977764 183.271691,475.256037 183.271691,474.101645 L183.271691,264.971036 Z M186.271691,471.504958 L228.558329,447.116862 L228.558329,241.419261 L186.271691,265.836998 L186.271691,471.504958 Z" id="5-middle-right"></path>
                <path d="M137.977264,344.272481 L48.916696,292.860572 L6.65183707,317.277227 L137.977264,393.086493 L137.977264,344.272481 Z M138.72735,396.983459 L2.90244437,318.576813 C1.90252243,317.999595 1.90228263,316.556437 2.90201268,315.978887 L48.166066,289.82958 C48.6301916,289.561452 49.2021198,289.561358 49.6663332,289.829334 L140.227185,342.107311 C140.691331,342.375248 140.977264,342.870464 140.977264,343.406395 L140.977264,395.684372 C140.977264,396.839029 139.72735,397.560722 138.72735,396.983459 Z" id="5-bottom-top"></path>
                <path d="M364.409092,264.947518 C364.409092,264.411301 364.695328,263.915867 365.159865,263.648034 L410.447446,237.537152 C410.911513,237.26959 411.483044,237.269811 411.946904,237.537731 L457.198824,263.674667 C458.198604,264.252127 458.198494,265.695281 457.198627,266.27259 L366.659127,318.548787 C365.659127,319.126172 364.409092,318.404487 364.409092,317.249768 L364.409092,264.947518 Z M367.409092,314.651613 L453.449124,264.973345 L411.196004,240.568478 L367.409092,265.814139 L367.409092,314.651613 Z" id="4-middle-top"></path>
                <path d="M409.688124,343.411067 C409.688124,342.875091 409.974104,342.37984 410.438313,342.11192 L455.715308,315.980027 C456.715308,315.402871 457.965118,316.124571 457.965118,317.279175 L457.965118,474.110107 C457.965118,475.264704 456.71532,475.986405 455.71532,475.409262 L410.438325,449.277956 C409.97411,449.010037 409.688124,448.514783 409.688124,447.978802 L409.688124,343.411067 Z M412.688124,447.112621 L454.965118,471.512497 L454.965118,319.876814 L412.688124,344.277238 L412.688124,447.112621 Z" id="4-bottom-left"></path>
                <path d="M457.949544,264.969837 C457.949544,266.124695 456.699238,266.846363 455.699238,266.268698 L410.446898,240.128008 C409.982969,239.860013 409.697205,239.364919 409.697205,238.829147 L409.697205,81.9593506 C409.697205,80.8043756 410.947739,80.0827222 411.947739,80.6606213 L457.200079,106.811912 C457.663879,107.079942 457.949544,107.574964 457.949544,108.110641 L457.949544,264.969837 Z M454.949544,108.976255 L412.697205,84.558662 L412.697205,237.963358 L454.949544,262.371053 L454.949544,108.976255 Z" id="4-top-left"></path>
                <path d="M457.224268,109.400607 C456.760238,109.668497 456.188551,109.66853 455.724491,109.400693 L410.442753,83.2659427 C409.442614,82.6887043 409.442476,81.2452252 410.442503,80.6677949 L455.724242,54.5214631 C456.188429,54.2534348 456.760361,54.2534678 457.224517,54.5215497 L502.494185,80.6678815 C503.494013,81.2453502 503.493874,82.6885793 502.493936,83.2658562 L457.224268,109.400607 Z M498.744324,81.9665091 L456.474204,57.5526218 L414.192814,81.9665091 L456.474204,106.369582 L498.744324,81.9665091 Z" id="4-top-top"></path>
                <path d="M319.169155,187.434586 L50.4212952,32.2664897 L50.4212952,237.959351 L141.226268,289.831801 C141.690226,290.099788 141.976013,290.594898 141.976013,291.130692 L141.976013,395.684189 C141.976013,396.838867 140.726057,397.560557 139.726057,396.983252 L5.14819731,319.86806 L5.14819731,368.694623 L183.265804,471.507368 L183.265804,265.848827 L93.4690479,214.009945 C93.0049139,213.742004 92.7189904,213.246795 92.7189904,212.710873 L92.7189904,108.09945 C92.7189904,106.944773 93.968946,106.223082 94.968946,106.800387 L276.079548,211.356397 C276.543675,211.62434 276.829593,212.119544 276.829593,212.655461 L276.829593,368.655488 L319.169155,393.061784 L319.169155,187.434586 Z M138.976013,291.996521 L48.17104,240.124071 C47.7070822,239.856083 47.4212952,239.360973 47.4212952,238.82518 L47.4212952,29.6683595 C47.4212952,28.513647 48.6713185,27.7919606 49.6713185,28.3693349 L321.419178,185.269554 C321.883266,185.537507 322.169155,186.03269 322.169155,186.568579 L322.169155,395.657817 C322.169155,396.812063 320.92004,397.533808 319.92004,396.957366 L274.580478,370.821744 C274.115878,370.553929 273.829593,370.058459 273.829593,369.522195 L273.829593,213.521521 L95.7189904,110.697424 L95.7189904,211.844804 L185.515747,263.683686 C185.979881,263.951627 186.265804,264.446836 186.265804,264.982758 L186.265804,474.105147 C186.265804,475.259782 185.015933,475.981478 184.015933,475.40426 L2.89832588,370.85986 C2.43415181,370.59193 2.14819731,370.096699 2.14819731,369.560748 L2.14819731,317.270085 C2.14819731,316.115407 3.39815339,315.393717 4.39815339,315.971022 L138.976013,393.086214 L138.976013,291.996521 Z" id="5-face"></path>
                <path d="M321.37714,396.958469 C320.37714,397.53551 319.127441,396.813803 319.127441,395.659257 L319.127441,186.540375 C319.127441,186.004515 319.413299,185.509354 319.877348,185.241391 L364.145552,159.101437 C365.145552,158.523991 366.395645,159.245673 366.395645,160.400421 L366.395645,314.673677 L454.970505,264.090709 L454.970505,108.104706 C454.970505,107.568812 455.256398,107.073626 455.720493,106.805675 L501.000873,80.662471 C502.000873,80.0851083 503.250885,80.8067953 503.250885,81.9615021 L503.250885,447.988022 C503.250885,448.524012 502.964889,449.019274 502.500661,449.287189 L457.220281,475.419442 C456.220281,475.996562 454.970505,475.27486 454.970505,474.120274 L454.970505,319.869688 L321.37714,396.958469 Z M322.127441,187.406328 L322.127441,393.061878 L455.720807,315.973096 C456.720807,315.396056 457.970505,316.117763 457.970505,317.272308 L457.970505,471.522714 L500.250885,447.121824 L500.250885,84.5596063 L457.970505,108.970722 L457.970505,264.95655 C457.970505,265.492349 457.684711,265.987464 457.220745,266.255449 L365.645885,318.571208 C364.645885,319.148805 363.395645,318.427132 363.395645,317.272308 L363.395645,162.998713 L322.127441,187.406328 Z" id="4-face"></path>
            </g>
            <path d="M1.004,530.6 L23.718,530.6 C29.6766965,530.6 34.9656436,531.829988 39.585,534.29 C44.2043564,536.750012 47.7986538,540.152978 50.368,544.499 C52.9373462,548.845022 54.222,553.778639 54.222,559.3 C54.222,564.821361 52.9373462,569.754978 50.368,574.101 C47.7986538,578.447022 44.2043564,581.849988 39.585,584.31 C34.9656436,586.770012 29.6766965,588 23.718,588 L1.004,588 L1.004,530.6 Z M23.39,584.228 C28.6926932,584.228 33.3666464,583.175677 37.412,581.071 C41.4573536,578.966323 44.5733224,576.028019 46.76,572.256 C48.9466776,568.483981 50.04,564.165358 50.04,559.3 C50.04,554.434642 48.9466776,550.116019 46.76,546.344 C44.5733224,542.571981 41.4573536,539.633677 37.412,537.529 C33.3666464,535.424323 28.6926932,534.372 23.39,534.372 L5.186,534.372 L5.186,584.228 L23.39,584.228 Z M108.342,584.228 L108.342,588 L68.736,588 L68.736,530.6 L107.112,530.6 L107.112,534.372 L72.918,534.372 L72.918,557.004 L103.504,557.004 L103.504,560.694 L72.918,560.694 L72.918,584.228 L108.342,584.228 Z M94.73,516.25 L100.634,516.25 L87.76,525.926 L83.332,525.926 L94.73,516.25 Z M163.446,588 L149.752,568.812 C147.729323,569.085335 145.870675,569.222 144.176,569.222 L127.776,569.222 L127.776,588 L123.594,588 L123.594,530.6 L144.176,530.6 C151.392036,530.6 157.049979,532.308316 161.15,535.725 C165.25002,539.141684 167.3,543.88397 167.3,549.952 C167.3,554.489356 166.138345,558.302318 163.815,561.391 C161.491655,564.479682 158.170688,566.65266 153.852,567.91 L168.202,588 L163.446,588 Z M144.176,565.532 C150.298697,565.532 154.972651,564.179014 158.198,561.473 C161.423349,558.766986 163.036,554.926692 163.036,549.952 C163.036,544.977308 161.423349,541.137014 158.198,538.431 C154.972651,535.724986 150.298697,534.372 144.176,534.372 L127.776,534.372 L127.776,565.532 L144.176,565.532 Z M182.634,530.6 L186.816,530.6 L186.816,588 L182.634,588 L182.634,530.6 Z M252.662,530.6 L227.078,588 L222.896,588 L197.312,530.6 L201.904,530.6 L225.11,582.588 L248.316,530.6 L252.662,530.6 Z M298.664,571.846 L265.372,571.846 L258.074,588 L253.564,588 L279.968,530.6 L284.15,530.6 L310.554,588 L306.044,588 L298.664,571.846 Z M297.106,568.32 L282.018,535.192 L267.012,568.32 L297.106,568.32 Z M331.956,534.372 L311.292,534.372 L311.292,530.6 L356.802,530.6 L356.802,534.372 L336.138,534.372 L336.138,588 L331.956,588 L331.956,534.372 Z M367.134,530.6 L371.316,530.6 L371.316,588 L367.134,588 L367.134,530.6 Z M400.426,584.597 C395.888644,582.054987 392.32168,578.570022 389.725,574.142 C387.12832,569.713978 385.83,564.766694 385.83,559.3 C385.83,553.833306 387.12832,548.886022 389.725,544.458 C392.32168,540.029978 395.888644,536.545013 400.426,534.003 C404.963356,531.460987 410.047305,530.19 415.678,530.19 C421.308695,530.19 426.392644,531.447321 430.93,533.962 C435.467356,536.476679 439.03432,539.947978 441.631,544.376 C444.22768,548.804022 445.526,553.778639 445.526,559.3 C445.526,564.821361 444.22768,569.795978 441.631,574.224 C439.03432,578.652022 435.467356,582.123321 430.93,584.638 C426.392644,587.152679 421.308695,588.41 415.678,588.41 C410.047305,588.41 404.963356,587.139013 400.426,584.597 Z M428.716,581.276 C432.597353,579.089322 435.658655,576.069019 437.9,572.215 C440.141345,568.360981 441.262,564.056024 441.262,559.3 C441.262,554.543976 440.141345,550.239019 437.9,546.385 C435.658655,542.530981 432.597353,539.510678 428.716,537.324 C424.834647,535.137322 420.488691,534.044 415.678,534.044 C410.867309,534.044 406.507686,535.137322 402.599,537.324 C398.690314,539.510678 395.615345,542.530981 393.374,546.385 C391.132655,550.239019 390.012,554.543976 390.012,559.3 C390.012,564.056024 391.132655,568.360981 393.374,572.215 C395.615345,576.069019 398.690314,579.089322 402.599,581.276 C406.507686,583.462678 410.867309,584.556 415.678,584.556 C420.488691,584.556 424.834647,583.462678 428.716,581.276 Z M506.78,530.6 L506.78,588 L503.336,588 L464.222,538.144 L464.222,588 L460.04,588 L460.04,530.6 L463.566,530.6 L502.598,580.456 L502.598,530.6 L506.78,530.6 Z" id="Dérivation" fill="#040404"></path>
        </g>
    </g>
</svg>